# xmcd
#
# Track frame offsets:
#	150
#	14650
#	31917
#
# Disc length: 681 seconds
#
# Revision: 0
# Processed by: cddbd v1.5.1PL0 Copyright (c) Steve Scherf et al.
# Submitted via: audiograbber 1.82.02
#
DISCID=1c02a703
DTITLE=Josh Kelley - Only You (Single)
DYEAR=2005
DGENRE=Pop
TTITLE0=Only You
TTITLE1=Never Gonna Let You Down
TTITLE2=Heartache
EXTD=
EXTT0=
EXTT1=
EXTT2=
PLAYORDER=
